<svg width="412.25" height="87.20394684711813" viewBox="0 0 470.9130434782609 76.94186614557891" >
  <defs id="SvgjsDefs1205"/>

  <g id="SvgjsG1207" featurekey="j5pGhi-0" transform="matrix(3.487773082413508,0,0,3.487773082413508,94.87599524406464,-9.088107099589548)" fill="#ffffff">
    <path d="M0.32227 6.348000000000001 l0 -1.4063 l7.9492 0 l0 1.4063 l-3.2422 0 l0 13.076 l-1.4746 0 l0 -13.076 l-3.2324 0 z M13.339846875 8.203 q2.470703125 0 4.1015625 1.787109375 q1.50390625 1.630859375 1.50390625 3.876953125 q0.01953125 5.546875 0 5.634765625 l-1.4551 0 l0 -2.4316 q-1.142578125 2.12890625 -4.150390625 2.3828125 q-2.4609375 0 -4.018554688 -1.674804688 t-1.5576 -3.9111 q0 -2.2265625 1.474609375 -3.8671875 q1.630859375 -1.796875 4.1015625 -1.796875 z M13.339846875 9.551 q-1.708984375 0 -2.939453125 1.26953125 t-1.2305 3.0664 q0 1.162109375 0.6298828125 2.236328125 t2.1338 1.8164 q3.76953125 0.83984375 5.361328125 -3.427734375 q0.087890625 -1.3671875 -0.29296875 -2.6171875 q-0.2734375 -0.56640625 -0.751953125 -1.07421875 q-1.201171875 -1.26953125 -2.91015625 -1.26953125 z M27.001990625 9.648 l-0.87891 0.91797 q-1.11328125 -1.07421875 -2.158203125 -1.07421875 q-0.673828125 0 -1.15234375 0.439453125 t-0.47852 1.0449 q0 0.5078125 0.400390625 0.9765625 q0.390625 0.498046875 1.650390625 1.142578125 q1.54296875 0.791015625 2.08984375 1.533203125 q0.537109375 0.751953125 0.537109375 1.689453125 q0 1.30859375 -0.9228515625 2.221679688 t-2.3096 0.91309 q-0.927734375 0 -1.772460938 -0.3955078125 t-1.3916 -1.1084 l0.86914 -0.98633 q1.0546875 1.19140625 2.236328125 1.19140625 q0.8203125 0 1.401367188 -0.5322265625 t0.58105 -1.2451 q0 -0.595703125 -0.380859375 -1.0546875 t-1.7285 -1.1523 q-1.455078125 -0.732421875 -1.97265625 -1.474609375 q-0.52734375 -0.72265625 -0.52734375 -1.66015625 q0 -1.220703125 0.8349609375 -2.026367188 t2.0947 -0.80566 q1.474609375 0 2.978515625 1.4453125 z M29.414090625 4.59 l1.3867 0 l0 8.457 l4.9512 -4.3164 l2.0313 0 l-4.4824 4.0723 l4.8242 6.6406 l-1.9531 0 l-4.2188 -5.7617 l-1.1523 0.94727 l0 4.8145 l-1.3867 0 l0 -14.854 z M40.0195125 4.3260000000000005 q0.46875 0 0.8056640625 0.33203125 t0.33691 0.80078 t-0.33691 0.80566 t-0.80566 0.33691 t-0.80078 -0.33691 t-0.33203 -0.80566 t0.33203 -0.80078 t0.80078 -0.33203 z M39.3359125 8.73 l1.377 0 l0 10.713 l-1.377 0 l0 -10.713 z M47.48045 6.074 q-1.015625 -0.546875 -1.9921875 -0.087890625 q-0.87890625 0.46875 -1.1328125 2.587890625 l0 1.0742 l2.5391 0 l0 1.1816 l-2.5488 0 l0 8.6328 l-1.3867 0 l0 -11.123 q0.029296875 -1.30859375 0.537109375 -2.1484375 q0.78125 -1.62109375 2.5 -1.6796875 q0.87890625 -0.205078125 1.9140625 0.419921875 q-0.166015625 0.41015625 -0.4296875 1.142578125 z M48.9355475 8.477 l1.4551 0 l3.6816 8.252 l3.5742 -8.252 l1.4746 0 l-6.3965 14.619 l-1.4551 0 l2.0605 -4.7168 z M69.90246875 15.6348 l1.1523 0.61523 q-0.556640625 1.123046875 -1.30859375 1.806640625 t-1.6895 1.04 t-2.1191 0.35645 q-2.6171875 0 -4.091796875 -1.713867188 t-1.4746 -3.8721 q0 -2.041015625 1.25 -3.6328125 q1.58203125 -2.03125 4.248046875 -2.03125 q2.724609375 0 4.365234375 2.080078125 q1.162109375 1.46484375 1.171875 3.65234375 l-9.6191 0 q0.0390625 1.875 1.19140625 3.071289063 t2.8418 1.1963 q0.8203125 0 1.591796875 -0.2880859375 t1.3135 -0.75684 t1.1768 -1.5234 z M69.90246875 12.7539 q-0.2734375 -1.103515625 -0.80078125 -1.762695313 t-1.3965 -1.0645 t-1.8262 -0.40527 q-1.572265625 0 -2.705078125 1.015625 q-0.8203125 0.7421875 -1.240234375 2.216796875 l7.9688 0 z M73.44730625 14.541 l0 -1.2891 q0.15625 -0.966796875 0.44921875 -1.572265625 q0.68359375 -1.6796875 1.8359375 -2.4609375 t1.9141 -0.78125 q0.56640625 0 1.2109375 0.37109375 l-0.71289 1.1523 q-0.908203125 -0.33203125 -1.801757813 0.537109375 t-1.2354 1.8945 q-0.25390625 0.908203125 -0.25390625 3.408203125 l0 3.623 l-1.4063 0 l0 -4.8828 z"/>
  </g>
</svg>
